<svg xmlns="http://www.w3.org/2000/svg" width="22.5" height="20.622" viewBox="0 0 22.5 20.622"><defs><style>.a{fill:#015cab;opacity:0.9;}</style></defs><path class="a" d="M21.575,25.093H3.983l-.261-2.913a.924.924,0,0,0-.92-.841H.924a.924.924,0,0,0,0,1.848H1.957l1.063,11.84A3.555,3.555,0,0,0,4.35,37.435a2.8,2.8,0,1,0,4.84.77h5.057a2.8,2.8,0,1,0,2.634-1.848H6.562a1.716,1.716,0,0,1-1.578-1.04l14.767-.868a.924.924,0,0,0,.842-.7l1.878-7.51A.924.924,0,0,0,21.575,25.093ZM6.556,40.112a.953.953,0,1,1,.953-.953A.954.954,0,0,1,6.556,40.112Zm10.326,0a.953.953,0,1,1,.953-.953A.954.954,0,0,1,16.882,40.112Zm2.084-7.468-14.23.836-.587-6.539H20.392Z" transform="translate(0 -21.338)"/></svg>