<svg xmlns="http://www.w3.org/2000/svg" width="20.814" height="20.814" viewBox="0 0 20.814 20.814"><defs><style>.a{fill:#015cab;}</style></defs><path class="a" d="M145.866,40.193a1.077,1.077,0,0,0,1.523,0l4.06-4.06a1.077,1.077,0,0,0-1.523-1.523L147.7,36.832V25.077a1.077,1.077,0,0,0-2.153,0V36.832l-2.222-2.222a1.077,1.077,0,1,0-1.523,1.523Z" transform="translate(-136.22 -24)"/><path class="a" d="M43.738,232a1.077,1.077,0,0,0-1.077,1.077v8.254H26.153v-8.254a1.077,1.077,0,1,0-2.153,0v8.613a1.794,1.794,0,0,0,1.794,1.794H43.02a1.794,1.794,0,0,0,1.794-1.794v-8.613A1.077,1.077,0,0,0,43.738,232Z" transform="translate(-24 -222.669)"/></svg>