<?xml version="1.0" encoding="utf-8"?><!-- Generator: Adobe Illustrator 18.0.0, SVG Export Plug-In . SVG Version: 6.00 Build 0)  -->
<!DOCTYPE svg PUBLIC "-//W3C//DTD SVG 1.1//EN" "http://www.w3.org/Graphics/SVG/1.1/DTD/svg11.dtd">
<svg version="1.1" id="Layer_1" xmlns="http://www.w3.org/2000/svg" xmlns:xlink="http://www.w3.org/1999/xlink" x="0px" y="0px" viewBox="0 0 23.1 23.1" enable-background="new 0 0 23.1 23.1" xml:space="preserve">
	<g>
		<path d="M15.1,0H8C3.6,0,0,3.6,0,8v7.1c0,4.4,3.6,8,8,8h7.1c4.4,0,8-3.6,8-8V8C23.1,3.6,19.5,0,15.1,0z M21.8,15.1
		c0,3.7-3,6.8-6.8,6.8H8c-3.7,0-6.8-3-6.8-6.8V8c0-3.7,3-6.8,6.8-6.8h7.1c3.7,0,6.8,3,6.8,6.8V15.1z"/>
		<circle cx="17.7" cy="5.4" r="1.2"/>
		<path d="M11.5,5.8c-3.2,0-5.8,2.6-5.8,5.8c0,3.2,2.6,5.8,5.8,5.8c3.2,0,5.8-2.6,5.8-5.8C17.3,8.4,14.7,5.8,11.5,5.8z M11.5,16.1
		C9,16.1,7,14,7,11.5C7,9,9,7,11.5,7c2.5,0,4.5,2,4.5,4.5C16.1,14,14,16.1,11.5,16.1z"/>
	</g>
</svg>