<svg xmlns="http://www.w3.org/2000/svg" width="33.256" height="33.955" viewBox="0 0 33.256 33.955"><defs><style>.a{fill:#015cab;}</style></defs><g transform="translate(0 6.242)"><path class="a" d="M29.445,67.61H3.811A3.814,3.814,0,0,1,0,63.8V46.478a3.814,3.814,0,0,1,3.811-3.81h6.314a1.039,1.039,0,0,1,0,2.079H3.811a1.734,1.734,0,0,0-1.732,1.732V63.8a1.735,1.735,0,0,0,1.732,1.732H29.445A1.735,1.735,0,0,0,31.178,63.8V46.478a1.734,1.734,0,0,0-1.732-1.732H23.131a1.039,1.039,0,0,1,0-2.079h6.314a3.814,3.814,0,0,1,3.811,3.81V63.8A3.814,3.814,0,0,1,29.445,67.61Zm0,0" transform="translate(0 -39.896)"/><path class="a" d="M307.328,162.079h-7.621a1.039,1.039,0,1,1,0-2.079h7.621a1.039,1.039,0,0,1,0,2.079Zm0,0" transform="translate(-293.269 -150.608)"/><path class="a" d="M307.328,247.411H285.57a1.039,1.039,0,1,1,0-2.079h21.759a1.039,1.039,0,0,1,0,2.079Zm0,0" transform="translate(-279.269 -230.397)"/><path class="a" d="M321.342,332.747H299.707a1.039,1.039,0,1,1,0-2.078h21.635a1.039,1.039,0,1,1,0,2.078Zm0,0" transform="translate(-293.269 -310.19)"/><g transform="translate(-21.562 -26.667)"><path class="a" d="M143.456,30.308l2.377-2.377v8.575a1.152,1.152,0,0,0,2.3,0V27.931l2.377,2.377a1.152,1.152,0,1,0,1.629-1.629L147.8,24.336a1.152,1.152,0,0,0-1.629,0l-4.343,4.343a1.152,1.152,0,0,0,1.629,1.629Z" transform="translate(-108.795 -3.575)"/></g></g></svg>