<svg xmlns="http://www.w3.org/2000/svg" width="53.036" height="47.869" viewBox="0 0 53.036 47.869"><defs><style>.a{fill:#015cab;}</style></defs><g transform="translate(-17.37 -40)"><path class="a" d="M35.546,54.183a.886.886,0,0,0-.83.575L32.056,61.85a.887.887,0,0,0,.83,1.2H80.021a.886.886,0,0,0,.793-1.283l-3.546-7.092a.886.886,0,0,0-.793-.49H75.25l-3.3-6.6a.886.886,0,0,0-.793-.49H69.045l-3.3-6.6a.886.886,0,0,0-.793-.49H48.995a.886.886,0,0,0-.83.575l-2.444,6.516H42.638a.886.886,0,0,0-.83.575l-2.444,6.516Zm-1.38,7.092,1.995-5.319h6.015l1.995,5.319Zm11.283-1.638-1.38-3.681h2.76Zm1.279,1.638,1.995-5.319h5.863l1.995,5.319Zm14.949-12.41,1.995,5.319H53.82l1.995-5.319ZM57.859,59.637l-1.38-3.681h2.76ZM52.54,52.545l-1.38-3.681h2.76Zm8.592,3.411H67l1.995,5.319H59.138Zm17.454,5.319h-7.7l-1.995-5.319h7.038Zm-5.319-7.092h-7.7l-1.995-5.319h7.038Zm-6.205-7.092h-7.7l-1.995-5.319H64.4ZM49.609,41.773h5.863l1.995,5.319H47.614Zm-6.357,7.092h6.015l1.995,5.319h-10Z" transform="translate(-13.009)"/><path class="a" d="M64.2,267.087h6.205v-1.773H63.314a.886.886,0,0,0-.886.886v.886H59.768a.886.886,0,0,0-.886.887v.879a7.166,7.166,0,0,0-8.6,1.154l-1.513,1.513H38.05a3.969,3.969,0,0,0-1.472.28l-2.234-4.963a3.805,3.805,0,0,0-5.786-1.458l-.376-.5a3.454,3.454,0,0,0-5.671.19,3.394,3.394,0,0,0-4.146,5.31l9.688,9.688a22.285,22.285,0,0,0,30.83.66v2.322a.886.886,0,0,0,.886.886h2.659V285.7a.886.886,0,0,0,.886.886h7.092v-1.773H64.2Zm-34.236-.506a2.029,2.029,0,0,1,2.763.983l2.369,5.263a4,4,0,0,0-.489.667L29.618,266.8a2.021,2.021,0,0,1,.346-.22ZM24.546,265.5a1.68,1.68,0,0,1,2.214.436l7.3,9.8A15.008,15.008,0,0,1,30.9,273.31l-7.033-7.033a1.684,1.684,0,0,1,.679-.78Zm33.772,13.31a20.514,20.514,0,0,1-29.012,0l-9.688-9.688h0a1.621,1.621,0,0,1,2.293-2.292l7.737,7.737a16.752,16.752,0,0,0,5.478,3.656A3.976,3.976,0,0,0,38.05,279.5H49.131v-1.773H38.05a2.211,2.211,0,0,1-1.71-.807h0l0,0a2.191,2.191,0,0,1-.5-1.407V275.5c0-.015,0-.029,0-.044a2.2,2.2,0,0,1,.647-1.514,2.107,2.107,0,0,1,.222-.193,2.2,2.2,0,0,1,1.345-.456H49.131a.886.886,0,0,0,.627-.26l1.773-1.773a5.389,5.389,0,0,1,7.351-.243v7.227Zm2.336,3.349v-13.3h1.773v13.3Z" transform="translate(0 -198.72)"/></g></svg>