<svg xmlns="http://www.w3.org/2000/svg" width="50.802" height="41.673" viewBox="0 0 50.802 41.673"><defs><style>.a{fill:#015cab;}</style></defs><g transform="translate(0 -46)"><path class="a" d="M246.992,386a.992.992,0,1,0,.992.992A.993.993,0,0,0,246.992,386Z" transform="translate(-221.591 -306.265)"/><path class="a" d="M46.544,47.525A24.654,24.654,0,0,0,37.605,46a24.654,24.654,0,0,0-8.939,1.525A8.807,8.807,0,0,0,25.4,49.613a8.807,8.807,0,0,0-3.266-2.088A24.652,24.652,0,0,0,13.2,46a24.654,24.654,0,0,0-8.939,1.525C1.512,48.631,0,50.2,0,51.953V75.767c0,1.75,1.512,3.322,4.258,4.428A24.133,24.133,0,0,0,12.5,81.711v.009c0,3.394,5.545,5.953,12.9,5.953s12.9-2.559,12.9-5.953v-.009a24.133,24.133,0,0,0,8.244-1.517c2.746-1.106,4.258-2.679,4.258-4.428V51.953C50.8,50.2,49.29,48.631,46.544,47.525Zm2.273,22.288c0,.847-1.155,1.838-3.015,2.588a22.431,22.431,0,0,1-7.5,1.372V69.813s0-.006,0-.009a24.13,24.13,0,0,0,8.244-1.517,10.8,10.8,0,0,0,2.273-1.215v2.74ZM24.409,57.907c0,.847-1.155,1.838-3.015,2.588a22.975,22.975,0,0,1-8.2,1.381A22.975,22.975,0,0,1,5,60.494c-1.86-.749-3.015-1.74-3.015-2.588v-2.74a10.8,10.8,0,0,0,2.273,1.215A24.654,24.654,0,0,0,13.2,57.907a24.654,24.654,0,0,0,8.939-1.525,10.8,10.8,0,0,0,2.273-1.215ZM4.258,62.335A24.654,24.654,0,0,0,13.2,63.86a24.654,24.654,0,0,0,8.939-1.525,10.8,10.8,0,0,0,2.273-1.215v2.757a24.129,24.129,0,0,0-7.02,1.209,8.538,8.538,0,0,0-4.216,2.742A22.96,22.96,0,0,1,5,66.447c-1.86-.749-3.015-1.74-3.015-2.588V61.12A10.8,10.8,0,0,0,4.258,62.335ZM1.984,67.073a10.8,10.8,0,0,0,2.273,1.215A24.134,24.134,0,0,0,12.5,69.8s0,.006,0,.009v3.959A22.43,22.43,0,0,1,5,72.4c-1.86-.749-3.015-1.74-3.015-2.588Zm12.607,2.252c.735-1.711,4.98-3.481,10.809-3.481s10.074,1.77,10.809,3.479a1.228,1.228,0,0,1,.106.489c0,.872-1.075,1.841-2.877,2.592A21.6,21.6,0,0,1,25.4,73.782a21.6,21.6,0,0,1-8.037-1.377c-1.8-.751-2.877-1.72-2.877-2.592A1.225,1.225,0,0,1,14.591,69.326ZM48.817,63.86c0,.847-1.155,1.838-3.015,2.588a22.958,22.958,0,0,1-8.174,1.381,8.538,8.538,0,0,0-4.216-2.742,24.125,24.125,0,0,0-7.02-1.209V61.12a10.8,10.8,0,0,0,2.273,1.215,24.654,24.654,0,0,0,8.939,1.525,24.654,24.654,0,0,0,8.939-1.525,10.8,10.8,0,0,0,2.273-1.215Zm0-5.953c0,.847-1.155,1.838-3.015,2.588a22.975,22.975,0,0,1-8.2,1.381,22.975,22.975,0,0,1-8.2-1.381c-1.86-.749-3.015-1.74-3.015-2.588v-2.74a10.8,10.8,0,0,0,2.273,1.215,24.654,24.654,0,0,0,8.939,1.525,24.654,24.654,0,0,0,8.939-1.525,10.8,10.8,0,0,0,2.273-1.215ZM29.408,49.366a22.975,22.975,0,0,1,8.2-1.381,22.975,22.975,0,0,1,8.2,1.381c1.86.749,3.015,1.74,3.015,2.588s-1.155,1.838-3.015,2.588a22.975,22.975,0,0,1-8.2,1.381,22.975,22.975,0,0,1-8.2-1.381c-1.86-.749-3.015-1.74-3.015-2.588S27.548,50.115,29.408,49.366ZM5,49.366a22.975,22.975,0,0,1,8.2-1.381,22.975,22.975,0,0,1,8.2,1.381c1.86.749,3.015,1.74,3.015,2.588s-1.155,1.838-3.015,2.588a22.975,22.975,0,0,1-8.2,1.381A22.975,22.975,0,0,1,5,54.541c-1.86-.749-3.015-1.74-3.015-2.588S3.14,50.115,5,49.366ZM5,78.354c-1.86-.749-3.015-1.74-3.015-2.588v-2.74a10.8,10.8,0,0,0,2.273,1.215A24.132,24.132,0,0,0,12.5,75.758v3.968A22.43,22.43,0,0,1,5,78.354Zm28.439,5.958A21.6,21.6,0,0,1,25.4,85.689a21.6,21.6,0,0,1-8.037-1.377c-1.8-.751-2.877-1.72-2.877-2.592V79.038a8.742,8.742,0,0,0,.749.484A17.378,17.378,0,0,0,21.3,81.429a1.006,1.006,0,0,0,.145.011.992.992,0,0,0,.143-1.974c-4.611-.677-7.1-2.411-7.1-3.7V73.076c2.246,1.643,6.21,2.691,10.914,2.691s8.669-1.048,10.914-2.691v2.691c0,1.288-2.488,3.022-7.1,3.7a.992.992,0,0,0,.143,1.974,1.007,1.007,0,0,0,.145-.011,17.377,17.377,0,0,0,6.063-1.907,8.757,8.757,0,0,0,.749-.484V81.72C36.315,82.592,35.24,83.561,33.438,84.312ZM45.8,78.354a22.43,22.43,0,0,1-7.5,1.372V75.758a24.132,24.132,0,0,0,8.244-1.517,10.8,10.8,0,0,0,2.273-1.215v2.74C48.817,76.614,47.662,77.605,45.8,78.354Z" transform="translate(0 0)"/></g></svg>