<svg xmlns="http://www.w3.org/2000/svg" width="23.545" height="23.545" viewBox="0 0 23.545 23.545"><defs><style>.a{fill:#015cab;}</style></defs><path class="a" d="M22.7,5.886H18.5V.841A.841.841,0,0,0,17.659,0H5.886a.841.841,0,0,0-.841.841V5.886H.841A.841.841,0,0,0,0,6.727V17.659a.841.841,0,0,0,.841.841h4.2v4.2a.841.841,0,0,0,.841.841H17.659A.841.841,0,0,0,18.5,22.7V18.5h4.2a.841.841,0,0,0,.841-.841V6.727A.841.841,0,0,0,22.7,5.886ZM6.727,1.682H16.818v4.2H6.727ZM16.818,21.863H6.727V14.3H16.818Zm5.045-5.045H18.5V14.3h.841a.841.841,0,1,0,0-1.682H4.2a.841.841,0,1,0,0,1.682h.841v2.523H1.682V7.568H21.863Z"/><g transform="translate(18.5 9.25)"><path class="a" d="M377.148,187.733h-.841a.841.841,0,1,0,0,1.682h.841a.841.841,0,1,0,0-1.682Z" transform="translate(-375.466 -187.733)"/></g><g transform="translate(8.409 15.977)"><path class="a" d="M176.552,324.267h-5.045a.841.841,0,1,0,0,1.682h5.045a.841.841,0,1,0,0-1.682Z" transform="translate(-170.666 -324.267)"/></g><g transform="translate(8.409 18.5)"><path class="a" d="M176.552,375.467h-5.045a.841.841,0,1,0,0,1.682h5.045a.841.841,0,1,0,0-1.682Z" transform="translate(-170.666 -375.467)"/></g></svg>