<svg xmlns="http://www.w3.org/2000/svg" width="27.528" height="17.545" viewBox="0 0 27.528 17.545"><defs><style>.a{fill:#015cab;}</style></defs><g transform="translate(0 -92.835)"><g transform="translate(0 92.835)"><g transform="translate(0 0)"><path class="a" d="M27.353,101.072c-.246-.336-6.105-8.237-13.589-8.237S.42,100.736.175,101.072a.908.908,0,0,0,0,1.071c.246.336,6.105,8.237,13.589,8.237s13.343-7.9,13.589-8.237A.907.907,0,0,0,27.353,101.072Zm-13.589,7.493c-5.513,0-10.287-5.244-11.7-6.958,1.412-1.716,6.176-6.957,11.7-6.957s10.286,5.243,11.7,6.958C24.053,103.324,19.288,108.565,13.764,108.565Z" transform="translate(0 -92.835)"/></g></g><g transform="translate(8.319 96.163)"><g transform="translate(0 0)"><path class="a" d="M160.167,154.725a5.445,5.445,0,1,0,5.445,5.445A5.451,5.451,0,0,0,160.167,154.725Zm0,9.075a3.63,3.63,0,1,1,3.63-3.63A3.634,3.634,0,0,1,160.167,163.8Z" transform="translate(-154.722 -154.725)"/></g></g></g></svg>