<svg xmlns="http://www.w3.org/2000/svg" width="54.43" height="54.51" viewBox="0 0 54.43 54.51"><defs><style>.a,.b{fill:#015cab;}.b{stroke:#015cab;stroke-width:0.5px;}</style></defs><g transform="translate(-270 -428)"><g transform="translate(270 428)"><path class="a" d="M27,11h1.814v1.814H27Z" transform="translate(-4.321 -2.836)"/><path class="a" d="M53,35h1.814v1.814H53Z" transform="translate(-6.735 -5.064)"/><path class="a" d="M35,51h1.814v1.814H35Z" transform="translate(-5.064 -6.549)"/><path class="a" d="M27,54h1.814v1.814H27Z" transform="translate(-4.321 -6.828)"/><path class="a" d="M11,31h1.814v1.814H11Z" transform="translate(-2.836 -4.692)"/><path class="a" d="M35,11h1.814v1.814H35Z" transform="translate(-5.064 -2.836)"/><path class="a" d="M51,27h1.814v1.814H51Z" transform="translate(-6.549 -4.321)"/><path class="a" d="M46,17h1.814v1.814H46Z" transform="translate(-6.085 -3.393)"/><path class="a" d="M16,17h1.814v1.814H16Z" transform="translate(-3.3 -3.393)"/><path class="a" d="M46,45h1.814v1.814H46Z" transform="translate(-6.085 -5.992)"/><path class="a" d="M16,45h1.814v1.814H16Z" transform="translate(-3.3 -5.992)"/><g transform="translate(0 0)"><path class="a" d="M53.708,37.379a2.677,2.677,0,0,0-1.166.272l-2.086-2.086H41.915V33.751h4.536V31.936H41.915V30.122h4.75l5.159-2.58a2.716,2.716,0,1,0-.837-1.956,2.631,2.631,0,0,0,.034.329l-4.783,2.392H41.915V26.493h2.721V24.679H41.915V22.865h4l2.994-2.994a2.677,2.677,0,0,0,1.167.272,2.721,2.721,0,1,0-2.721-2.721,2.677,2.677,0,0,0,.272,1.166L45.168,21.05H41.915a4.541,4.541,0,0,0-4.536-4.536V14.169l5.184-5.184a2.677,2.677,0,0,0,1.166.272,2.721,2.721,0,1,0-2.721-2.721A2.677,2.677,0,0,0,41.28,7.7l-5.715,5.715v3.1H33.751V13.793H31.936v2.721H30.122V10a2.721,2.721,0,1,0-1.814,0v6.517H26.493V13.793H24.679v2.721H22.865V9.789l-3.9-3.9a2.677,2.677,0,0,0,.272-1.167,2.721,2.721,0,1,0-2.721,2.721,2.677,2.677,0,0,0,1.166-.272l3.37,3.369v5.975a4.541,4.541,0,0,0-4.536,4.536H13.262L10.8,18.587a2.677,2.677,0,0,0,.272-1.166A2.721,2.721,0,1,0,8.35,20.143a2.677,2.677,0,0,0,1.166-.272l2.994,2.994h4.005v1.814H10.743L5.992,28.638a2.679,2.679,0,0,0-1.27-.33A2.722,2.722,0,1,0,7.228,29.97L11.4,26.493h5.115v1.814H13.793v1.814h2.721v1.814H8.35v1.814h8.164v1.814H11.493L7.838,41.048a2.693,2.693,0,0,0-.395-.04,2.747,2.747,0,1,0,2,.9l3.016-4.525h4.05a4.541,4.541,0,0,0,4.536,4.536V47.89l-3.37,3.369a2.677,2.677,0,0,0-1.166-.272,2.721,2.721,0,1,0,2.721,2.721,2.677,2.677,0,0,0-.272-1.166l3.9-3.9V41.915h1.814v5.443h1.814V41.915h1.814v7.76l5.51,3.447a2.761,2.761,0,1,0,.97-1.534L30.122,48.67V41.915h1.814v2.721h1.814V41.915h1.814v7.257h6.517a2.721,2.721,0,1,0,0-1.814h-4.7V41.915a4.541,4.541,0,0,0,4.536-4.536H49.7l1.555,1.556a2.677,2.677,0,0,0-.272,1.166,2.721,2.721,0,1,0,2.721-2.721Zm0-12.7a.907.907,0,1,1-.907.907A.907.907,0,0,1,53.708,24.679ZM50.08,16.515a.907.907,0,1,1-.907.907A.907.907,0,0,1,50.08,16.515ZM43.729,5.629a.907.907,0,1,1-.907.907A.907.907,0,0,1,43.729,5.629Zm-14.515.907a.907.907,0,1,1-.907.907A.907.907,0,0,1,29.215,6.536ZM15.607,4.721a.907.907,0,1,1,.907.907A.907.907,0,0,1,15.607,4.721Zm-8.164,12.7a.907.907,0,1,1,.907.907A.907.907,0,0,1,7.443,17.422ZM4.721,31.936a.907.907,0,1,1,.907-.907A.907.907,0,0,1,4.721,31.936Zm2.721,12.7a.907.907,0,1,1,.907-.907A.907.907,0,0,1,7.443,44.637Zm9.072,9.979a.907.907,0,1,1,.907-.907A.907.907,0,0,1,16.515,54.615ZM36.472,52.8a.907.907,0,1,1-.907.907A.907.907,0,0,1,36.472,52.8Zm8.164-5.443a.907.907,0,1,1-.907.907A.907.907,0,0,1,44.637,47.358ZM40.1,37.379A2.721,2.721,0,0,1,37.379,40.1H21.05a2.721,2.721,0,0,1-2.721-2.721V21.05a2.721,2.721,0,0,1,2.721-2.721H37.379A2.721,2.721,0,0,1,40.1,21.05Zm13.607,3.629a.907.907,0,1,1,.907-.907A.907.907,0,0,1,53.708,41.008Z" transform="translate(-2 -2)"/></g></g><g transform="translate(289.301 450.503)"><path class="b" d="M15.938,186.629l-.93-4.232a.467.467,0,0,0-.456-.367h-2.44l-.849-3.865a.467.467,0,0,0-.456-.367H5.158a.467.467,0,0,0-.456.367l-.849,3.865H1.4a.467.467,0,0,0-.456.367l-.93,4.232a.467.467,0,0,0,.456.568H15.482a.467.467,0,0,0,.456-.568Zm-10.4-7.9h4.9l.724,3.3H4.81Zm2.44,5.819-.349-1.587h.7Zm-6.927,1.711.724-3.3h4.9l.724,3.3Zm7.508,0,.724-3.3h4.9l.724,3.3Z" transform="translate(0.001 -177.798)"/></g></g></svg>