<svg xmlns="http://www.w3.org/2000/svg" width="47.688" height="47.69" viewBox="0 0 47.688 47.69"><defs><style>.a{fill:#015cab;}</style></defs><g transform="translate(-0.007 0)"><g transform="translate(21.207 31.1)"><path class="a" d="M230.037,333.891a2.422,2.422,0,1,0,2.422,2.422A2.424,2.424,0,0,0,230.037,333.891Zm0,2.981a.559.559,0,1,1,.559-.559A.559.559,0,0,1,230.037,336.872Z" transform="translate(-227.615 -333.891)"/></g><g transform="translate(0.007 0)"><g transform="translate(0 0)"><path class="a" d="M43.038,13.412h-1L28.9.273a.931.931,0,0,0-1.317,0L24.213,3.639,10.751.032A.931.931,0,0,0,9.61.691L6.2,13.412H3.919A3.916,3.916,0,0,0,.007,17.324c0,.052,0,.1,0,.154,0,.026,0,.051,0,.077V43.033A4.662,4.662,0,0,0,4.664,47.69H43.038A4.662,4.662,0,0,0,47.7,43.032V18.069A4.662,4.662,0,0,0,43.038,13.412Zm-.832,1.863h.832a2.8,2.8,0,0,1,2.794,2.794v7.465a2.21,2.21,0,0,1-2.208,2.208h-.959V24.03a4.662,4.662,0,0,0-4.56-4.655ZM25.15,5.337h0l3.087-3.087,12.18,12.18L35.5,19.343H33.8l2.229-2.229a.931.931,0,0,0,0-1.317,1.936,1.936,0,0,1,0-2.735.932.932,0,0,0,0-1.317L30.922,6.638a.932.932,0,0,0-1.317,0,1.936,1.936,0,0,1-2.735,0,.931.931,0,0,0-1.317,0l-12.7,12.7h-1.7ZM22.409,15.843a4.452,4.452,0,0,0-4.342,3.5H15.482L26.293,8.532a3.81,3.81,0,0,0,3.889,0l3.953,3.953a3.81,3.81,0,0,0,0,3.889l-2.969,2.969H26.751A4.451,4.451,0,0,0,22.409,15.843Zm2.4,3.5h-4.8a2.58,2.58,0,0,1,4.8,0Zm-14.651-1.65,2.467-9.206a3.808,3.808,0,0,0,3.369-1.945l4.192,1.123L14.1,13.748Zm1.009-15.62L22.692,5.16l-.984.984-6.02-1.613a.931.931,0,0,0-1.141.659,1.934,1.934,0,0,1-2.368,1.367.931.931,0,0,0-1.141.659L7.78,19.373H6.533Zm-7.25,13.2H5.7l-1.1,4.1H3.919a2.049,2.049,0,1,1,0-4.1ZM45.833,43.032a2.8,2.8,0,0,1-2.794,2.794H41.733a4.632,4.632,0,0,0,.933-2.793V39.291h.559a4.445,4.445,0,0,0,2.608-.843Zm0-8.212a2.611,2.611,0,0,1-2.608,2.608H23.665a3.912,3.912,0,1,1,0-7.824H37.7a.931.931,0,1,0,0-1.863H23.665a5.775,5.775,0,1,0,0,11.55H40.8v3.742a2.8,2.8,0,0,1-2.751,2.794H6.341V35.338a.931.931,0,0,0-1.863,0V45.82A2.8,2.8,0,0,1,1.87,43.033V20.654a3.888,3.888,0,0,0,2.049.581h34.09A2.8,2.8,0,0,1,40.8,24.03v3.711H34.068a.931.931,0,1,0,0,1.863h9.557a4.045,4.045,0,0,0,2.208-.653V34.82Z" transform="translate(-0.007 0)"/></g></g></g></svg>